<svg height="512pt" viewBox="0 0 512 512" width="512pt" xmlns="http://www.w3.org/2000/svg"><path d="m411.949219 103.386719c0 3.734375.566406 7.335937 1.625 10.722656 4.914062 2.511719 10.476562 3.941406 16.375 3.941406 19.878906 0 36-16.117187 36-36 0-3.734375-.570313-7.335937-1.625-10.722656-4.914063-2.515625-10.476563-3.941406-16.375-3.941406-19.882813 0-36 16.117187-36 36zm0 0" fill="#36d28f"/><path d="m233.1875 222.523438c-31.253906 31.253906-33.40625 80.570312-6.488281 114.335937 30.398437 10.988281 65.746093 4.320313 90.113281-20.046875 31.253906-31.257812 33.40625-80.574219 6.488281-114.335938-30.398437-10.992187-65.746093-4.320312-90.113281 20.046876zm0 0" fill="#ffc66c"/><path d="m163.871094 372.171875c0 13.277344-10.765625 24.042969-24.042969 24.042969s-24.042969-10.765625-24.042969-24.042969 10.765625-24.042969 24.042969-24.042969 24.042969 10.765625 24.042969 24.042969zm0 0" fill="#d8d8e4"/><path d="m237.261719 329.667969c-5.355469-1.351563-10.792969 1.886719-12.148438 7.238281-1.355469 5.355469 1.882813 10.792969 7.238281 12.148438 7.734376 1.957031 15.59375 2.910156 23.417969 2.910156 25.210938 0 49.949219-9.917969 68.113281-28.082032 18.132813-18.132812 28.117188-42.238281 28.117188-67.882812s-9.984375-49.75-28.117188-67.882812c-18.132812-18.132813-42.238281-28.117188-67.882812-28.117188s-49.75 9.984375-67.882812 28.117188c-25.710938 25.710937-34.664063 63.167968-23.371094 97.75 1.714844 5.253906 7.359375 8.121093 12.609375 6.402343 5.25-1.710937 8.117187-7.359375 6.402343-12.609375-8.941406-27.386718-1.855468-57.046875 18.503907-77.398437 14.351562-14.355469 33.4375-22.261719 53.738281-22.261719s39.386719 7.90625 53.738281 22.261719c14.355469 14.351562 22.261719 33.4375 22.261719 53.738281s-7.90625 39.386719-22.261719 53.738281c-18.839843 18.84375-46.613281 26.476563-72.476562 19.929688zm0 0"/><path d="m187.757812 309.273438c-3.933593 3.878906-3.980468 10.210937-.101562 14.144531l.449219.453125c1.953125 1.960937 4.519531 2.941406 7.082031 2.941406 2.554688 0 5.109375-.972656 7.058594-2.917969 3.914062-3.898437 3.925781-10.230469.027344-14.140625l-.375-.378906c-3.878907-3.933594-10.210938-3.980469-14.140626-.101562zm0 0"/><path d="m466.375 110.09375c5.992188-7.769531 9.574219-17.492188 9.574219-28.042969 0-25.363281-20.636719-46-46-46-10.554688 0-20.277344 3.582031-28.050781 9.578125-42.957032-29.859375-93.3125-45.628906-145.898438-45.628906-68.378906 0-132.667969 26.628906-181.019531 74.980469-48.351563 48.351562-74.980469 112.640625-74.980469 181.019531s26.628906 132.667969 74.980469 181.019531c48.351562 48.351563 112.640625 74.980469 181.019531 74.980469s132.667969-26.628906 181.019531-74.980469c48.351563-48.351562 74.980469-112.640625 74.980469-181.019531 0-52.625-15.761719-102.949219-45.625-145.90625zm-36.425781-54.042969c14.335937 0 26 11.664063 26 26 0 14.335938-11.664063 26-26 26-14.335938 0-26-11.664062-26-26 0-14.335937 11.664062-26 26-26zm-173.949219 435.949219c-130.132812 0-236-105.867188-236-236s105.867188-236 236-236c47.886719 0 93.769531 14.179688 133.042969 41.050781-3.25 6.300781-5.09375 13.4375-5.09375 21 0 25.363281 20.636719 46 46 46 7.558593 0 14.695312-1.84375 20.992187-5.089843 26.878906 39.269531 41.058594 85.113281 41.058594 133.039062 0 130.132812-105.867188 236-236 236zm0 0"/><path d="m256 101.707031.382812.003907h.035157c5.507812 0 9.980469-4.457032 10-9.96875.019531-5.519532-4.441407-10.015626-9.964844-10.03125l-.453125-.003907c-5.523438 0-10 4.476563-10 10 0 5.523438 4.476562 10 10 10zm0 0"/><path d="m394.757812 150.515625c-22.492187-29.542969-54.410156-51.511719-89.875-61.855469-5.296874-1.546875-10.851562 1.496094-12.398437 6.800782-1.546875 5.300781 1.496094 10.851562 6.800781 12.398437 65.359375 19.0625 111.003906 79.980469 111.003906 148.140625 0 85.078125-69.214843 154.292969-154.289062 154.292969-30.367188 0-59.5-8.722657-84.652344-25.277344 1.621094-3.964844 2.523438-8.300781 2.523438-12.84375 0-18.769531-15.273438-34.042969-34.042969-34.042969-4.542969 0-8.875.902344-12.84375 2.523438-16.554687-25.152344-25.277344-54.261719-25.277344-84.652344 0-69.816406 47.050781-131.125 114.421875-149.09375 5.335938-1.421875 8.507813-6.902344 7.082032-12.238281-1.421876-5.339844-6.902344-8.511719-12.238282-7.085938-76.109375 20.296875-129.265625 89.554688-129.265625 168.417969 0 35.039062 10.265625 68.582031 29.742188 97.398438-3.574219 5.386718-5.664063 11.839843-5.664063 18.773437 0 18.769531 15.269532 34.042969 34.042969 34.042969 6.933594 0 13.386719-2.089844 18.773437-5.664063 28.820313 19.46875 62.382813 29.742188 97.398438 29.742188 96.105469 0 174.289062-78.1875 174.289062-174.292969.003907-38.472656-12.285156-74.949219-35.53125-105.484375zm-254.929687 235.699219c-7.742187 0-14.042969-6.300782-14.042969-14.042969s6.300782-14.042969 14.042969-14.042969 14.042969 6.300782 14.042969 14.042969-6.300782 14.042969-14.042969 14.042969zm0 0"/></svg>