<?xml version="1.0" encoding="iso-8859-1"?>
<!-- Generator: Adobe Illustrator 19.0.0, SVG Export Plug-In . SVG Version: 6.00 Build 0)  -->
<svg version="1.1" id="Layer_1" xmlns="http://www.w3.org/2000/svg" xmlns:xlink="http://www.w3.org/1999/xlink" x="0px" y="0px"
	 viewBox="0 0 512 512" style="enable-background:new 0 0 512 512;" xml:space="preserve">
<circle style="fill:#87DFD6;" cx="411.847" cy="256.051" r="33.755"/>
<circle style="fill:#4A7DBA;" cx="82.939" cy="82.939" r="44.513"/>
<circle style="fill:#FFFE9F;" cx="256.051" cy="256.051" r="66.77"/>
<path d="M256.05,333.947c42.953,0,77.898-34.945,77.898-77.898s-34.945-77.898-77.898-77.898s-77.898,34.945-77.898,77.898
	S213.097,333.947,256.05,333.947z M256.05,200.408c30.681,0,55.641,24.961,55.641,55.641s-24.961,55.641-55.641,55.641
	s-55.641-24.961-55.641-55.641S225.369,200.408,256.05,200.408z"/>
<path d="M182.113,380.452c-0.601-0.401-1.246-0.746-1.925-1.024c-0.668-0.278-1.369-0.49-2.081-0.634
	c-1.436-0.289-2.904-0.289-4.34,0c-0.712,0.145-1.413,0.356-2.081,0.634c-0.679,0.278-1.324,0.623-1.925,1.024
	c-0.612,0.401-1.18,0.868-1.691,1.38c-0.512,0.512-0.979,1.079-1.38,1.691c-0.401,0.601-0.746,1.246-1.024,1.925
	c-0.278,0.668-0.49,1.369-0.634,2.081c-0.145,0.712-0.223,1.447-0.223,2.17c0,2.938,1.191,5.798,3.261,7.868
	c0.512,0.512,1.079,0.979,1.691,1.391c0.601,0.401,1.246,0.746,1.925,1.024c0.668,0.278,1.369,0.49,2.081,0.634
	c0.712,0.145,1.447,0.211,2.17,0.211c0.723,0,1.458-0.067,2.17-0.211c0.712-0.145,1.413-0.356,2.081-0.634
	c0.679-0.278,1.324-0.623,1.925-1.024c0.612-0.412,1.18-0.879,1.691-1.391c2.07-2.07,3.261-4.941,3.261-7.868
	c0-2.927-1.191-5.798-3.261-7.868C183.293,381.32,182.725,380.853,182.113,380.452z"/>
<path d="M437.034,75.066c-85.254-85.254-217.795-99.29-318.53-34.914c-9.974-8.322-22.421-12.859-35.569-12.859
	c-14.862,0-28.836,5.788-39.344,16.297C33.081,54.1,27.293,68.073,27.293,82.934c0,13.148,4.538,25.596,12.859,35.57
	c-64.377,100.735-50.34,233.277,34.914,318.529C123.408,485.377,187.683,512,256.05,512c68.368,0,132.641-26.623,180.985-74.966
	C485.376,388.692,512,324.417,512,256.049S485.376,123.408,437.034,75.066z M59.328,59.327c6.305-6.305,14.689-9.778,23.606-9.778
	s17.301,3.473,23.606,9.778c0.72,0.72,1.398,1.47,2.043,2.242c0.05,0.06,0.101,0.118,0.152,0.176
	c4.91,5.958,7.583,13.367,7.583,21.188c0,8.917-3.473,17.301-9.778,23.606l0,0c-6.305,6.305-14.689,9.778-23.606,9.778
	c-7.814,0-15.218-2.667-21.174-7.569c-0.067-0.059-0.134-0.118-0.203-0.175c-0.768-0.642-1.515-1.316-2.23-2.033
	c-6.305-6.305-9.778-14.689-9.778-23.606S53.022,65.633,59.328,59.327z M421.296,421.297
	c-44.138,44.139-102.824,68.448-165.246,68.448s-121.108-24.309-165.246-68.448C13.531,344.023,0.319,224.208,57.622,132.499
	c7.742,3.965,16.363,6.077,25.312,6.077c14.862,0,28.836-5.788,39.344-16.297l0,0c10.51-10.51,16.297-24.482,16.297-39.344
	c0-8.949-2.113-17.57-6.077-25.312c91.71-57.303,211.526-44.091,288.798,33.181C512.413,181.921,512.413,330.179,421.296,421.297z"
	/>
<path d="M416.937,211.463c-9.194-33.149-28.699-63.057-55.586-84.94c-29.631-24.116-67.027-37.398-105.3-37.398
	c-92.042,0-166.924,74.882-166.924,166.924c0,45.229,17.794,87.573,50.103,119.234c2.166,2.122,4.978,3.179,7.789,3.179
	c2.886,0,5.77-1.115,7.949-3.34c4.301-4.39,4.23-11.435-0.16-15.738c-28.003-27.439-43.424-64.138-43.424-103.336
	c0-79.77,64.898-144.668,144.668-144.668c63.867,0,120.54,42.812,138.627,103.204c-16.254,6.755-27.715,22.794-27.715,41.464
	c0,18.67,11.462,34.709,27.716,41.464c-18.088,60.391-74.761,103.204-138.628,103.204c-14.077,0-27.985-2.015-41.34-5.99
	c-5.889-1.753-12.088,1.6-13.84,7.492c-1.753,5.891,1.6,12.088,7.492,13.84c15.417,4.588,31.462,6.915,47.689,6.915
	c38.274,0,75.67-13.282,105.301-37.398c26.886-21.883,46.392-51.79,55.586-84.939c22.359-2.537,39.793-21.56,39.793-44.587
	C456.729,233.023,439.296,213.999,416.937,211.463z M411.846,278.677c-12.477,0-22.627-10.15-22.627-22.627
	c0-12.477,10.15-22.627,22.627-22.627c12.477,0,22.627,10.15,22.627,22.627C434.473,268.526,424.323,278.677,411.846,278.677z"/>
<g>
</g>
<g>
</g>
<g>
</g>
<g>
</g>
<g>
</g>
<g>
</g>
<g>
</g>
<g>
</g>
<g>
</g>
<g>
</g>
<g>
</g>
<g>
</g>
<g>
</g>
<g>
</g>
<g>
</g>
</svg>
